<svg xmlns="http://www.w3.org/2000/svg" xmlns:xlink="http://www.w3.org/1999/xlink" xmlns:fi="http://pattern.flaticon.com/" x="0" y="0" width="700" height="350" viewBox="0 0 700 350"><rect x="0px" y="0px" width="100%" height="100%" opacity="1" fill="#ffffff"/><defs><g transform="matrix(0.11299447723905069 -0.055048591187914206 0.055048591187914206 0.11299447723905069 294.980974482697 -1.8341468290909404)" id="L1_1332"><path d="m239.942 274.246c-5.522 0-10 4.478-10 10v.085c0 5.522 4.478 9.957 10 9.957s10-4.52 10-10.042-4.477-10-10-10z"/><path d="m188.947 274.246c-5.522 0-10 4.478-10 10v.085c0 5.522 4.478 9.957 10 9.957s10-4.52 10-10.042-4.477-10-10-10z"/><path d="m137.925 274.246c-5.522 0-10 4.478-10 10v.085c0 5.522 4.478 9.957 10 9.957s10-4.52 10-10.042-4.478-10-10-10z"/><path d="m97.561 67.628c-18.628 0-33.782 15.152-33.782 33.777 0 18.641 15.154 33.806 33.782 33.806 18.612 0 33.754-15.165 33.754-33.806-.001-18.625-15.142-33.777-33.754-33.777zm0 47.583c-7.6 0-13.782-6.193-13.782-13.806 0-7.597 6.183-13.777 13.782-13.777 7.584 0 13.754 6.181 13.754 13.777-.001 7.613-6.17 13.806-13.754 13.806z"/><path d="m192.604 67.628c-18.612 0-33.754 15.152-33.754 33.777 0 18.641 15.142 33.806 33.754 33.806s33.754-15.165 33.754-33.806c0-18.625-15.141-33.777-33.754-33.777zm0 47.583c-7.584 0-13.754-6.193-13.754-13.806 0-7.597 6.17-13.777 13.754-13.777s13.754 6.181 13.754 13.777c0 7.613-6.17 13.806-13.754 13.806z"/><path d="m414.439 67.628h-108.196c-18.612 0-33.754 15.152-33.754 33.777 0 18.641 15.142 33.806 33.754 33.806h108.196c18.612 0 33.754-15.165 33.754-33.806 0-18.625-15.141-33.777-33.754-33.777zm0 47.583h-108.196c-7.584 0-13.754-6.193-13.754-13.806 0-7.597 6.17-13.777 13.754-13.777h108.196c7.584 0 13.754 6.181 13.754 13.777 0 7.613-6.17 13.806-13.754 13.806z"/><path d="m467.588 24.5h-423.176c-24.489 0-44.412 19.938-44.412 44.446v236.75c0 5.522 4.478 10 10 10s10-4.478 10-10v-127.357h472v264.715c0 13.479-10.951 24.446-24.412 24.446h-423.176c-13.461 0-24.412-10.967-24.412-24.446v-47.469c0-5.522-4.478-10-10-10s-10 4.478-10 10v47.469c0 24.508 19.923 44.446 44.412 44.446h423.176c24.489 0 44.412-19.938 44.412-44.446v-374.108c0-24.508-19.923-44.446-44.412-44.446zm24.412 133.839h-472v-89.393c0-13.479 10.951-24.446 24.412-24.446h423.176c13.461 0 24.412 10.967 24.412 24.446z"/><path d="m329.544 342.042c5.522 0 10-4.521 10-10.043s-4.478-10-10-10-10 4.478-10 10v.085c0 5.522 4.477 9.958 10 9.958z"/><path d="m380.538 342.042c5.522 0 10-4.521 10-10.043s-4.478-10-10-10-10 4.478-10 10v.085c0 5.522 4.478 9.958 10 9.958z"/><path d="m279.343 211.001h-180.819c-10.828 0-19.638 8.813-19.638 19.647v111.65c0 10.834 8.81 19.647 19.638 19.647h19.494l11.524 31.021c1.127 3.034 3.652 5.335 6.778 6.175.856.23 1.729.343 2.595.343 2.297 0 4.553-.791 6.365-2.287l42.724-35.251h31.478v28.105c0 10.834 8.81 19.647 19.638 19.647h91.336l42.723 35.277c1.813 1.497 4.07 2.289 6.368 2.289.865 0 1.736-.112 2.591-.342 3.126-.839 5.652-3.139 6.78-6.172l11.552-31.053h19.469c10.844 0 19.666-8.813 19.666-19.647v-111.65c0-10.834-8.822-19.647-19.666-19.647h-120.93v-28.105c0-10.834-8.822-19.647-19.666-19.647zm-94.931 130.945c-2.322 0-4.573.809-6.364 2.287l-34.652 28.592-9.051-24.361c-1.456-3.918-5.194-6.518-9.374-6.518h-26.084v-110.945h180.122v37.192c-.01.187-.028.371-.028.561s.018.374.028.561v72.632h-94.597zm235.192-63.192v110.945h-26.084c-4.178 0-7.916 2.598-9.372 6.514l-9.074 24.392-34.656-28.616c-1.792-1.479-4.043-2.289-6.367-2.289h-94.568v-27.753h39.86c10.844 0 19.666-8.813 19.666-19.647v-63.545h120.595z"/><path d="m10 360.641c5.522 0 10-4.478 10-10v-.057c0-5.522-4.478-9.972-10-9.972s-10 4.506-10 10.028 4.478 10.001 10 10.001z"/></g><g transform="matrix(0.12748095510442 0.011589177765953784 -0.011589177765953784 0.12748095510442 145.33170500135265 116.39804598518431)" id="L1_1333"><path d="m239.942 274.246c-5.522 0-10 4.478-10 10v.085c0 5.522 4.478 9.957 10 9.957s10-4.52 10-10.042-4.477-10-10-10z"/><path d="m188.947 274.246c-5.522 0-10 4.478-10 10v.085c0 5.522 4.478 9.957 10 9.957s10-4.52 10-10.042-4.477-10-10-10z"/><path d="m137.925 274.246c-5.522 0-10 4.478-10 10v.085c0 5.522 4.478 9.957 10 9.957s10-4.52 10-10.042-4.478-10-10-10z"/><path d="m97.561 67.628c-18.628 0-33.782 15.152-33.782 33.777 0 18.641 15.154 33.806 33.782 33.806 18.612 0 33.754-15.165 33.754-33.806-.001-18.625-15.142-33.777-33.754-33.777zm0 47.583c-7.6 0-13.782-6.193-13.782-13.806 0-7.597 6.183-13.777 13.782-13.777 7.584 0 13.754 6.181 13.754 13.777-.001 7.613-6.17 13.806-13.754 13.806z"/><path d="m192.604 67.628c-18.612 0-33.754 15.152-33.754 33.777 0 18.641 15.142 33.806 33.754 33.806s33.754-15.165 33.754-33.806c0-18.625-15.141-33.777-33.754-33.777zm0 47.583c-7.584 0-13.754-6.193-13.754-13.806 0-7.597 6.17-13.777 13.754-13.777s13.754 6.181 13.754 13.777c0 7.613-6.17 13.806-13.754 13.806z"/><path d="m414.439 67.628h-108.196c-18.612 0-33.754 15.152-33.754 33.777 0 18.641 15.142 33.806 33.754 33.806h108.196c18.612 0 33.754-15.165 33.754-33.806 0-18.625-15.141-33.777-33.754-33.777zm0 47.583h-108.196c-7.584 0-13.754-6.193-13.754-13.806 0-7.597 6.17-13.777 13.754-13.777h108.196c7.584 0 13.754 6.181 13.754 13.777 0 7.613-6.17 13.806-13.754 13.806z"/><path d="m467.588 24.5h-423.176c-24.489 0-44.412 19.938-44.412 44.446v236.75c0 5.522 4.478 10 10 10s10-4.478 10-10v-127.357h472v264.715c0 13.479-10.951 24.446-24.412 24.446h-423.176c-13.461 0-24.412-10.967-24.412-24.446v-47.469c0-5.522-4.478-10-10-10s-10 4.478-10 10v47.469c0 24.508 19.923 44.446 44.412 44.446h423.176c24.489 0 44.412-19.938 44.412-44.446v-374.108c0-24.508-19.923-44.446-44.412-44.446zm24.412 133.839h-472v-89.393c0-13.479 10.951-24.446 24.412-24.446h423.176c13.461 0 24.412 10.967 24.412 24.446z"/><path d="m329.544 342.042c5.522 0 10-4.521 10-10.043s-4.478-10-10-10-10 4.478-10 10v.085c0 5.522 4.477 9.958 10 9.958z"/><path d="m380.538 342.042c5.522 0 10-4.521 10-10.043s-4.478-10-10-10-10 4.478-10 10v.085c0 5.522 4.478 9.958 10 9.958z"/><path d="m279.343 211.001h-180.819c-10.828 0-19.638 8.813-19.638 19.647v111.65c0 10.834 8.81 19.647 19.638 19.647h19.494l11.524 31.021c1.127 3.034 3.652 5.335 6.778 6.175.856.23 1.729.343 2.595.343 2.297 0 4.553-.791 6.365-2.287l42.724-35.251h31.478v28.105c0 10.834 8.81 19.647 19.638 19.647h91.336l42.723 35.277c1.813 1.497 4.07 2.289 6.368 2.289.865 0 1.736-.112 2.591-.342 3.126-.839 5.652-3.139 6.78-6.172l11.552-31.053h19.469c10.844 0 19.666-8.813 19.666-19.647v-111.65c0-10.834-8.822-19.647-19.666-19.647h-120.93v-28.105c0-10.834-8.822-19.647-19.666-19.647zm-94.931 130.945c-2.322 0-4.573.809-6.364 2.287l-34.652 28.592-9.051-24.361c-1.456-3.918-5.194-6.518-9.374-6.518h-26.084v-110.945h180.122v37.192c-.01.187-.028.371-.028.561s.018.374.028.561v72.632h-94.597zm235.192-63.192v110.945h-26.084c-4.178 0-7.916 2.598-9.372 6.514l-9.074 24.392-34.656-28.616c-1.792-1.479-4.043-2.289-6.367-2.289h-94.568v-27.753h39.86c10.844 0 19.666-8.813 19.666-19.647v-63.545h120.595z"/><path d="m10 360.641c5.522 0 10-4.478 10-10v-.057c0-5.522-4.478-9.972-10-9.972s-10 4.506-10 10.028 4.478 10.001 10 10.001z"/></g><g transform="matrix(0.09107991795218431 0.025616227545377995 -0.025616227545377995 0.09107991795218431 331.24163767204215 214.73444971751474)" id="L1_1334"><path d="m346.641 61.187h116.725c4.143 0 7.5-3.357 7.5-7.5s-3.357-7.5-7.5-7.5h-116.725c-4.143 0-7.5 3.357-7.5 7.5s3.357 7.5 7.5 7.5z"/><path d="m346.641 96.187h116.725c4.143 0 7.5-3.357 7.5-7.5s-3.357-7.5-7.5-7.5h-116.725c-4.143 0-7.5 3.357-7.5 7.5s3.357 7.5 7.5 7.5z"/><path d="m291.137 384.937-34.133-9.272-10.241-15.313c-6.165-9.221-18.853-11.872-28.281-5.239v-18.091c13.99-9.392 24.927-22.981 31.023-38.945h24.518c12.808 0 23.228-10.42 23.228-23.228v-30.616c0-5.69-2.06-10.906-5.469-14.949v-33.302c0-51.174-41.633-92.807-92.807-92.807h-52.115c-51.174 0-92.808 41.633-92.808 92.807v33.303c-3.408 4.043-5.468 9.258-5.468 14.948v30.616c0 12.808 10.419 23.228 23.227 23.228h24.519c6.096 15.964 17.033 29.552 31.022 38.944v18.091c-9.3-6.545-22.029-4.112-28.28 5.238l-10.242 15.314c-34.819 9.524-34.905 9.326-39.405 10.916-3.905 1.379-5.954 5.663-4.575 9.569 1.377 3.898 5.592 5.772 9.569 4.575 0 0 2.973-.888 37.17-10.267l36.541 32.003c8.686 7.607 21.816 7.643 30.544.094l14.244-12.319 14.243 12.319c8.714 7.537 21.847 7.523 30.544-.095l36.541-32.002 32.96 8.953c25.688 6.979 43.629 30.442 43.629 57.062v35.253c0 2.816-2.292 5.108-5.108 5.108h-27.059v-18.48c0-4.143-3.357-7.5-7.5-7.5s-7.5 3.357-7.5 7.5v18.48h-221.5v-18.48c0-4.143-3.357-7.5-7.5-7.5s-7.5 3.357-7.5 7.5v18.48h-27.06c-2.816 0-5.108-2.292-5.108-5.108v-35.253c0-13.808 4.87-27.254 13.713-37.864 2.652-3.182 2.223-7.911-.959-10.562-3.181-2.651-7.911-2.223-10.562.959-11.087 13.3-17.192 30.158-17.192 47.468v35.253c0 11.088 9.021 20.108 20.108 20.108h305.617c11.088 0 20.108-9.021 20.108-20.108v-35.253c.001-33.372-22.491-62.788-54.696-71.536zm-8.887-140.704v30.616c0 4.537-3.69 8.228-8.228 8.228h-20.39c.804-4.6 1.248-9.322 1.248-14.148v-32.923h19.143c4.537 0 8.227 3.69 8.227 8.227zm-210.439 38.844c-4.536 0-8.227-3.69-8.227-8.228v-30.616c0-4.537 3.69-8.228 8.227-8.228h19.144v32.923c0 4.826.443 9.549 1.248 14.148h-20.392zm9.734-87.743v25.672c-9.263.049-10.073-.118-12.493.169v-25.193c0-42.902 34.904-77.807 77.808-77.807h52.115c42.902 0 77.807 34.904 77.807 77.807v25.193c-2.416-.287-3.182-.12-12.492-.169v-25.672c0-36.46-29.663-66.122-66.123-66.122h-50.498c-36.461 0-66.124 29.662-66.124 66.122zm16.909 25.672c-.001 0-.001 0 0 0h-1.909v-25.672c0-28.188 22.934-51.122 51.123-51.122h50.498c28.189 0 51.123 22.934 51.123 51.122v25.672h-1.909c-4.347 0-7.883-3.536-7.883-7.883v-11.044c0-12.442-10.123-22.565-22.566-22.565-3.205 0-6.313.665-9.238 1.978-22.101 9.918-47.45 9.92-69.553-.001-2.925-1.312-6.033-1.977-9.237-1.977-12.442 0-22.565 10.123-22.565 22.565v11.044c-.001 4.347-3.537 7.883-7.884 7.883zm7.5 47.923v-34.186c8.945-3.111 15.383-11.628 15.383-21.62v-11.044c0-4.172 3.394-7.565 7.565-7.565 1.075 0 2.118.224 3.098.663 26.003 11.669 55.83 11.669 81.833 0 .98-.439 2.022-.663 3.098-.663 4.172 0 7.566 3.394 7.566 7.565v11.044c0 9.992 6.438 18.509 15.383 21.62v34.186c0 36.924-30.039 66.963-66.963 66.963s-66.963-30.039-66.963-66.963zm42.906 142.281c-3.101 2.682-7.764 2.666-10.849-.033l-34.613-30.314 8.143-12.174c1.655-2.474 5.056-3.018 7.398-1.179l42.186 33.092zm-6.508-44.399v-21.854c9.453 3.814 19.763 5.935 30.565 5.935s21.112-2.12 30.564-5.934v21.854l-30.564 23.976zm65.469 44.366c-3.084 2.701-7.747 2.714-10.849.032l-12.264-10.607 42.186-33.092c2.329-1.826 5.734-1.309 7.399 1.18l8.141 12.173z"/><path d="m482.743.166h-155.999c-16.132 0-29.257 13.125-29.257 29.258v6.731c0 4.143 3.357 7.5 7.5 7.5s7.5-3.357 7.5-7.5v-6.731c0-7.861 6.396-14.258 14.257-14.258h155.999c7.861 0 14.257 6.396 14.257 14.258v84.93c0 7.861-6.396 14.257-14.257 14.257h-92.814c-5.207 0-10.101 2.029-13.78 5.713l-34.512 34.564 5.679-26.478c1.524-7.111-3.899-13.8-11.154-13.8h-9.417c-7.861 0-14.257-6.396-14.257-14.257v-43.135c0-4.143-3.357-7.5-7.5-7.5s-7.5 3.357-7.5 7.5v43.136c0 16.132 13.125 29.257 29.257 29.257h4.973l-8.328 38.828c-.935 4.358 1.068 8.717 4.984 10.846 3.931 2.136 8.676 1.428 11.812-1.714l46.577-46.647c.846-.847 1.97-1.312 3.166-1.312h92.814c16.132 0 29.257-13.125 29.257-29.257v-84.93c0-16.134-13.125-29.259-29.257-29.259z"/></g><g transform="matrix(0.10564826428890228 0 0 0.10564826428890228 153.95404434204102 278.97556855577125)" id="L1_1335"><g><path d="m149.797 246.312c-.014 0-.029 0-.043 0-8.616.048-21.029.094-28.754.086v-96.152c0-4.142-3.358-7.5-7.5-7.5s-7.5 3.358-7.5 7.5v103.565c0 3.653 2.632 6.775 6.233 7.392 2.136.367 35.101.122 37.604.108 4.142-.023 7.481-3.4 7.458-7.542-.022-4.126-3.376-7.457-7.498-7.457z"/><path d="m195.67 142.747c-4.142 0-7.5 3.358-7.5 7.5v103.653c0 4.142 3.358 7.5 7.5 7.5s7.5-3.358 7.5-7.5v-103.653c0-4.142-3.358-7.5-7.5-7.5z"/><path d="m398.5 158.22c4.143 0 7.5-3.358 7.5-7.5s-3.357-7.5-7.5-7.5h-43.276c-4.143 0-7.5 3.358-7.5 7.5v102.707c0 4.142 3.357 7.5 7.5 7.5h43.276c4.143 0 7.5-3.358 7.5-7.5s-3.357-7.5-7.5-7.5h-35.776v-36.353h32.586c4.143 0 7.5-3.358 7.5-7.5s-3.357-7.5-7.5-7.5h-32.586v-36.354z"/><path d="m314.7 143.32c-3.927-1.307-8.176.821-9.481 4.753l-29.049 87.44-30.45-87.726c-1.358-3.914-5.633-5.983-9.545-4.626-3.913 1.358-5.984 5.632-4.626 9.545l35.457 102.146c1.393 3.923 5.113 6.547 9.271 6.547h.066c4.186-.028 7.902-2.709 9.266-6.722l33.844-101.876c1.307-3.93-.822-8.175-4.753-9.481z"/><path d="m433.335 101.537h-354.67c-16.633 0-30.165 13.532-30.165 30.165v140.743c0 16.633 13.532 30.165 30.165 30.165h354.67c16.633 0 30.165-13.532 30.165-30.165v-140.743c0-16.633-13.532-30.165-30.165-30.165zm15.165 170.908c0 8.362-6.803 15.165-15.165 15.165h-354.67c-8.362 0-15.165-6.803-15.165-15.165v-140.743c0-8.362 6.803-15.165 15.165-15.165h354.67c8.362 0 15.165 6.803 15.165 15.165z"/></g><g><path d="m504.5 307.787c-4.143 0-7.5 3.358-7.5 7.5v6.098c0 24.087-19.596 43.683-43.683 43.683h-111.569c-9.278 0-17.931 4.987-22.581 13.016l-56.788 98.044c-2.843 4.909-9.919 4.901-12.758 0l-56.788-98.044c-4.65-8.028-13.302-13.016-22.58-13.016h-111.57c-24.087 0-43.683-19.596-43.683-43.683v-245.51c0-24.086 19.596-43.683 43.683-43.683h6.359c4.142 0 7.5-3.358 7.5-7.5s-3.358-7.5-7.5-7.5h-6.359c-32.358 0-58.683 26.325-58.683 58.683v245.51c0 32.358 26.325 58.683 58.683 58.683h111.569c3.944 0 7.623 2.121 9.601 5.534l56.788 98.043c8.614 14.872 30.093 14.893 38.719 0l56.788-98.044c1.977-3.414 5.655-5.534 9.601-5.534h111.569c32.357 0 58.683-26.325 58.683-58.683v-6.098c-.001-4.141-3.358-7.499-7.501-7.499z"/><path d="m453.317 17.192h-353.212c-4.142 0-7.5 3.358-7.5 7.5s3.358 7.5 7.5 7.5h353.212c24.087 0 43.683 19.596 43.683 43.683v205.328c0 4.142 3.357 7.5 7.5 7.5s7.5-3.358 7.5-7.5v-205.328c0-32.358-26.325-58.683-58.683-58.683z"/></g></g><g transform="matrix(0.07608173089768015 0.04611014011628616 -0.04611014011628616 0.07608173089768015 294.4713066987903 119.95581580508815)" id="L1_1336"><path d="m467 150.993h-30.931c-10.13-24.097-25.22-46.317-44.333-64.844-30.042-29.121-68.937-48.096-109.518-53.43-67.246-8.839-133.155 16.916-176.301 68.894-12.382 14.917-22.458 31.61-29.896 49.38h-31.021c-24.813 0-45 20.187-45 45v60c0 24.813 20.187 45 45 45h61.45l-6.426-19.66c-18.726-57.293-8.164-115.814 28.977-160.559 36.522-44 92.34-65.798 149.307-58.311 71.355 9.379 129.132 65.417 140.5 136.275 7.758 48.351-5.776 97.209-37.133 134.049-31.429 36.924-77.151 58.139-125.444 58.206-24.94.034-45.23 20.222-45.23 45 0 24.813 20.187 45 45 45s45-20.187 45-45v-20.265c39.959-9.49 76.286-31.5 103.52-63.497 13.228-15.54 23.761-32.712 31.485-51.239h30.994c24.813 0 45-20.187 45-45v-60c0-24.812-20.187-44.999-45-44.999zm-400.935 120h-21.065c-8.271 0-15-6.729-15-15v-60c0-8.271 6.729-15 15-15h21.244c-.534 2.248-1.028 4.508-1.48 6.774-5.475 27.432-5.03 55.346 1.301 83.226zm204.935 165c0 8.271-6.729 15-15 15s-15-6.729-15-15c0-8.26 6.851-14.989 15.271-15 4.934-.007 9.85-.201 14.729-.576zm211-180c0 8.271-6.729 15-15 15h-21.254c5.956-25.05 6.87-50.907 2.683-77.008-.699-4.358-1.567-8.691-2.58-12.992h21.151c8.271 0 15 6.729 15 15z"/><path d="m181 210.993h30v30h-30z"/><path d="m241 210.993h30v30h-30z"/><path d="m301 210.993h30v30h-30z"/><path d="m121 330.993v30h135c74.439 0 135-60.561 135-135s-60.561-135-135-135-135 60.561-135 135c0 30.339 10.189 59.673 28.829 83.389-3.616 12.643-15.162 21.611-28.829 21.611zm135-210c57.897 0 105 47.103 105 105s-47.103 105-105 105h-83.024c4.299-7.438 6.975-15.765 7.772-24.472l.589-6.422-4.257-4.845c-16.817-19.148-26.08-43.745-26.08-69.261 0-57.897 47.103-105 105-105z"/></g><g transform="matrix(0.03257235108434897 -0.021714900530156834 0.021714900530156834 0.03257235108434897 51.50556862006246 146.64974088700436)" id="L1_1337"><path d="m467 150.993h-30.931c-10.13-24.097-25.22-46.317-44.333-64.844-30.042-29.121-68.937-48.096-109.518-53.43-67.246-8.839-133.155 16.916-176.301 68.894-12.382 14.917-22.458 31.61-29.896 49.38h-31.021c-24.813 0-45 20.187-45 45v60c0 24.813 20.187 45 45 45h61.45l-6.426-19.66c-18.726-57.293-8.164-115.814 28.977-160.559 36.522-44 92.34-65.798 149.307-58.311 71.355 9.379 129.132 65.417 140.5 136.275 7.758 48.351-5.776 97.209-37.133 134.049-31.429 36.924-77.151 58.139-125.444 58.206-24.94.034-45.23 20.222-45.23 45 0 24.813 20.187 45 45 45s45-20.187 45-45v-20.265c39.959-9.49 76.286-31.5 103.52-63.497 13.228-15.54 23.761-32.712 31.485-51.239h30.994c24.813 0 45-20.187 45-45v-60c0-24.812-20.187-44.999-45-44.999zm-400.935 120h-21.065c-8.271 0-15-6.729-15-15v-60c0-8.271 6.729-15 15-15h21.244c-.534 2.248-1.028 4.508-1.48 6.774-5.475 27.432-5.03 55.346 1.301 83.226zm204.935 165c0 8.271-6.729 15-15 15s-15-6.729-15-15c0-8.26 6.851-14.989 15.271-15 4.934-.007 9.85-.201 14.729-.576zm211-180c0 8.271-6.729 15-15 15h-21.254c5.956-25.05 6.87-50.907 2.683-77.008-.699-4.358-1.567-8.691-2.58-12.992h21.151c8.271 0 15 6.729 15 15z"/><path d="m181 210.993h30v30h-30z"/><path d="m241 210.993h30v30h-30z"/><path d="m301 210.993h30v30h-30z"/><path d="m121 330.993v30h135c74.439 0 135-60.561 135-135s-60.561-135-135-135-135 60.561-135 135c0 30.339 10.189 59.673 28.829 83.389-3.616 12.643-15.162 21.611-28.829 21.611zm135-210c57.897 0 105 47.103 105 105s-47.103 105-105 105h-83.024c4.299-7.438 6.975-15.765 7.772-24.472l.589-6.422-4.257-4.845c-16.817-19.148-26.08-43.745-26.08-69.261 0-57.897 47.103-105 105-105z"/></g><g transform="matrix(0.10547784971017593 0.04155188019337407 -0.04155188019337407 0.10547784971017593 172.6349467371175 8.360410067726576)" id="L1_1339"><path d="M428.337,336.658h-56.611V173.84c0-33.977-27.643-61.62-61.62-61.62H193.879c-33.977,0-61.62,27.643-61.62,61.62v162.818    H83.663c-4.15,0-7.515,3.365-7.515,7.515c0,4.15,3.365,7.515,7.515,7.515h8.517v8.517c0,61.601,50.117,111.718,111.718,111.718    h40.579v32.564c0,4.15,3.365,7.515,7.515,7.515c4.15,0,7.515-3.365,7.515-7.515v-32.564h40.579    c61.601,0,111.718-50.117,111.718-111.718v-8.517h16.532c4.15,0,7.515-3.365,7.515-7.515    C435.851,340.022,432.487,336.658,428.337,336.658z M147.288,183.358h52.603c2.486,0,4.509,2.023,4.509,4.509    c0,2.486-2.023,4.509-4.509,4.509h-52.603V183.358z M147.288,239.468h52.603c2.486,0,4.509,2.023,4.509,4.509    c0,2.486-2.023,4.509-4.509,4.509h-52.603V239.468z M147.288,295.577h52.603c2.486,0,4.509,2.023,4.509,4.509    s-2.023,4.509-4.509,4.509h-52.603V295.577z M131.256,351.687h157.14c4.15,0,7.515-3.365,7.515-7.515    c0-4.15-3.365-7.515-7.515-7.515H147.288v-17.033h52.603c10.773,0,19.538-8.765,19.538-19.538    c0-10.773-8.765-19.538-19.538-19.538h-52.603v-17.033h52.603c10.773,0,19.538-8.765,19.538-19.538    c0-10.773-8.765-19.538-19.538-19.538h-52.603v-17.033h52.603c10.773,0,19.538-8.765,19.538-19.538    c0-10.773-8.765-19.538-19.538-19.538h-52.266c2.736-23.101,22.429-41.08,46.254-41.08h10.521v16.532    c0,4.15,3.365,7.515,7.515,7.515c4.15,0,7.515-3.365,7.515-7.515v-16.532h25.049v16.532c0,4.15,3.365,7.515,7.515,7.515    c4.15,0,7.515-3.365,7.515-7.515v-16.532h25.049v16.532c0,4.15,3.365,7.515,7.515,7.515c4.15,0,7.515-3.365,7.515-7.515v-16.532    h10.521c23.825,0,43.518,17.979,46.254,41.08h-52.266c-10.773,0-19.538,8.765-19.538,19.538c0,10.773,8.765,19.538,19.538,19.538    h52.603v17.033h-52.603c-10.773,0-19.538,8.765-19.538,19.538c0,10.773,8.765,19.538,19.538,19.538h52.603v17.033h-52.603    c-10.773,0-19.538,8.765-19.538,19.538c0,10.773,8.765,19.538,19.538,19.538h52.603v17.033h-31.562    c-4.15,0-7.515,3.365-7.515,7.515c0,4.15,3.365,7.515,7.515,7.515h47.593v8.517c0,40.055-32.587,72.642-72.642,72.642h-96.188    c-40.055,0-72.642-32.587-72.642-72.642V351.687z M356.697,183.358v9.018h-52.603c-2.486,0-4.509-2.023-4.509-4.509    c0-2.486,2.023-4.509,4.509-4.509H356.697z M356.697,239.468v9.018h-52.603c-2.486,0-4.509-2.023-4.509-4.509    c0-2.486,2.023-4.509,4.509-4.509H356.697z M356.697,295.577v9.018h-52.603c-2.486,0-4.509-2.023-4.509-4.509    s2.023-4.509,4.509-4.509H356.697z M396.775,360.203c0,53.314-43.375,96.689-96.689,96.689h-96.188    c-53.314,0-96.689-43.375-96.689-96.689v-8.517h9.018v8.517c0,48.342,39.329,87.671,87.671,87.671h96.188    c48.342,0,87.671-39.329,87.671-87.671v-8.517h9.018V360.203z"/><path d="M252.994,368.72h-1.002c-4.15,0-7.515,3.365-7.515,7.515c0,4.15,3.365,7.515,7.515,7.515h1.002    c4.15,0,7.515-3.365,7.515-7.515C260.509,372.085,257.144,368.72,252.994,368.72z"/><path d="M285.057,368.72h-1.002c-4.15,0-7.515,3.365-7.515,7.515c0,4.15,3.365,7.515,7.515,7.515h1.002    c4.15,0,7.515-3.365,7.515-7.515C292.571,372.085,289.207,368.72,285.057,368.72z"/><path d="M317.119,368.72h-1.002c-4.15,0-7.515,3.365-7.515,7.515c0,4.15,3.365,7.515,7.515,7.515h1.002    c4.15,0,7.515-3.365,7.515-7.515C324.634,372.085,321.269,368.72,317.119,368.72z"/><path d="M349.182,368.72h-1.002c-4.15,0-7.515,3.365-7.515,7.515c0,4.15,3.365,7.515,7.515,7.515h1.002    c4.15,0,7.515-3.365,7.515-7.515C356.697,372.085,353.332,368.72,349.182,368.72z"/><path d="M252.994,400.783h-1.002c-4.15,0-7.515,3.365-7.515,7.515c0,4.15,3.365,7.515,7.515,7.515h1.002    c4.15,0,7.515-3.365,7.515-7.515C260.509,404.147,257.144,400.783,252.994,400.783z"/><path d="M285.057,400.783h-1.002c-4.15,0-7.515,3.365-7.515,7.515c0,4.15,3.365,7.515,7.515,7.515h1.002    c4.15,0,7.515-3.365,7.515-7.515C292.571,404.147,289.207,400.783,285.057,400.783z"/><path d="M317.119,400.783h-1.002c-4.15,0-7.515,3.365-7.515,7.515c0,4.15,3.365,7.515,7.515,7.515h1.002    c4.15,0,7.515-3.365,7.515-7.515C324.634,404.147,321.269,400.783,317.119,400.783z"/><path d="M219.93,368.72h-1.002c-4.15,0-7.515,3.365-7.515,7.515c0,4.15,3.365,7.515,7.515,7.515h1.002    c4.15,0,7.515-3.365,7.515-7.515C227.444,372.085,224.08,368.72,219.93,368.72z"/><path d="M187.867,368.72h-1.002c-4.15,0-7.515,3.365-7.515,7.515c0,4.15,3.365,7.515,7.515,7.515h1.002    c4.15,0,7.515-3.365,7.515-7.515C195.382,372.085,192.017,368.72,187.867,368.72z"/><path d="M155.804,368.72h-1.002c-4.15,0-7.515,3.365-7.515,7.515c0,4.15,3.365,7.515,7.515,7.515h1.002    c4.15,0,7.515-3.365,7.515-7.515C163.319,372.085,159.954,368.72,155.804,368.72z"/><path d="M219.93,400.783h-1.002c-4.15,0-7.515,3.365-7.515,7.515c0,4.15,3.365,7.515,7.515,7.515h1.002    c4.15,0,7.515-3.365,7.515-7.515C227.444,404.147,224.08,400.783,219.93,400.783z"/><path d="M187.867,400.783h-1.002c-4.15,0-7.515,3.365-7.515,7.515c0,4.15,3.365,7.515,7.515,7.515h1.002    c4.15,0,7.515-3.365,7.515-7.515C195.382,404.147,192.017,400.783,187.867,400.783z"/><path d="M291.313,48.35c-10.503-10.503-24.467-16.288-39.321-16.288c-14.854,0-28.818,5.784-39.321,16.288    c-2.935,2.935-2.935,7.693,0,10.627c2.935,2.936,7.693,2.935,10.627,0c7.665-7.664,17.855-11.885,28.694-11.885    c10.839,0,21.029,4.221,28.694,11.885c1.467,1.468,3.39,2.201,5.313,2.201C292.57,61.178,295.943,52.979,291.313,48.35z"/><path d="M313.984,25.679C297.426,9.12,275.41,0,251.992,0c-23.418,0-45.434,9.12-61.993,25.678c-2.935,2.935-2.935,7.693,0,10.627    c2.935,2.936,7.693,2.936,10.628,0.001c13.721-13.72,31.962-21.277,51.365-21.277s37.644,7.557,51.365,21.277    c3.057,3.056,8.216,2.851,11.027-0.431C316.903,32.934,316.721,28.414,313.984,25.679z"/><path d="M251.992,56.11c-12.983,0-23.546,10.563-23.546,23.546s10.563,23.546,23.546,23.546c12.983,0,23.546-10.563,23.546-23.546    S264.976,56.11,251.992,56.11z M251.992,88.172c-4.696,0-8.517-3.82-8.517-8.517s3.82-8.517,8.517-8.517    c4.696,0,8.517,3.82,8.517,8.517S256.688,88.172,251.992,88.172z"/></g><g transform="matrix(0.8013877036031607 -0.3535534140926298 0.3535534140926298 0.8013877036031607 220.3517664691263 206.56497131468407)" id="L1_1357"><path d="m56 0h-52c-2.209139 0-4 1.790861-4 4v52c0 2.209139 1.790861 4 4 4h52c2.209139 0 4-1.790861 4-4v-52c0-2.209139-1.790861-4-4-4zm-52 2h52c1.1045695 0 2 .8954305 2 2v4h-56v-4c0-1.1045695.8954305-2 2-2zm52 56h-52c-1.1045695 0-2-.8954305-2-2v-46h56v46c0 1.1045695-.8954305 2-2 2z" id="L1_1342"/><circle cx="5" cy="5" r="1" id="L1_1340"/><circle cx="9" cy="5" r="1" id="L1_1341"/><circle cx="13" cy="5" r="1" id="Oval"/><path d="m42 25c1.6568542 0 3-1.3431458 3-3v-6c0-1.6568542-1.3431458-3-3-3h-32c-1.65685425 0-3 1.3431458-3 3v.418l-2.232 1.273c-.472668.2645145-.76601775.7633078-.76746822 1.3049542s.28922367 1.0420036.76046822 1.3090458l2.239 1.277v.418c0 1.6568542 1.34314575 3 3 3zm-33-3v-1c.00003846-.3593639-.19275122-.6911149-.505-.869l-1.984-1.131 1.989-1.131c.31032331-.1791631.50106497-.5106721.5-.869v-1c0-.5522847.44771525-1 1-1h32c.5522847 0 1 .4477153 1 1v6c0 .5522847-.4477153 1-1 1h-32c-.55228475 0-1-.4477153-1-1z" id="L1_1343"/><path d="m12 20h1c.5522847 0 1-.4477153 1-1s-.4477153-1-1-1h-1c-.5522847 0-1 .4477153-1 1s.4477153 1 1 1z" id="L1_1344"/><path d="m28 20h2c.5522847 0 1-.4477153 1-1s-.4477153-1-1-1h-2c-.5522847 0-1 .4477153-1 1s.4477153 1 1 1z" id="L1_1345"/><path d="m34 20h6c.5522847 0 1-.4477153 1-1s-.4477153-1-1-1h-6c-.5522847 0-1 .4477153-1 1s.4477153 1 1 1z" id="L1_1346"/><path d="m17 20h7c.5522847 0 1-.4477153 1-1s-.4477153-1-1-1h-7c-.5522847 0-1 .4477153-1 1s.4477153 1 1 1z" id="L1_1347"/><path d="m47 40c1.6568542 0 3-1.3431458 3-3v-6c0-1.6568542-1.3431458-3-3-3h-32c-1.6568542 0-3 1.3431458-3 3v.418l-2.232 1.273c-.472668.2645145-.76601775.7633078-.76746822 1.3049542s.28922367 1.0420036.76046822 1.3090458l2.239 1.277v.418c0 1.6568542 1.3431458 3 3 3zm-33-3v-1c.0000385-.3593639-.1927512-.6911149-.505-.869l-1.984-1.131 1.989-1.131c.3103233-.1791631.501065-.5106721.5-.869v-1c0-.5522847.4477153-1 1-1h32c.5522847 0 1 .4477153 1 1v6c0 .5522847-.4477153 1-1 1h-32c-.5522847 0-1-.4477153-1-1z" id="L1_1348"/><path d="m17 35h1c.5522847 0 1-.4477153 1-1s-.4477153-1-1-1h-1c-.5522847 0-1 .4477153-1 1s.4477153 1 1 1z" id="L1_1349"/><path d="m33 35h2c.5522847 0 1-.4477153 1-1s-.4477153-1-1-1h-2c-.5522847 0-1 .4477153-1 1s.4477153 1 1 1z" id="L1_1350"/><path d="m39 35h6c.5522847 0 1-.4477153 1-1s-.4477153-1-1-1h-6c-.5522847 0-1 .4477153-1 1s.4477153 1 1 1z" id="L1_1351"/><path d="m22 35h7c.5522847 0 1-.4477153 1-1s-.4477153-1-1-1h-7c-.5522847 0-1 .4477153-1 1s.4477153 1 1 1z" id="L1_1352"/><path d="m53 43h-32c-1.6568542 0-3 1.3431458-3 3v.418l-2.235 1.273c-.472668.2645145-.7660178.7633078-.7674682 1.3049542-.0014505.5416464.2892237 1.0420036.7604682 1.3090458l2.242 1.277v.418c0 1.6568542 1.3431458 3 3 3h32c1.6568542 0 3-1.3431458 3-3v-6c0-1.6568542-1.3431458-3-3-3zm1 9c0 .5522847-.4477153 1-1 1h-32c-.5522847 0-1-.4477153-1-1v-1c.001065-.3583279-.1896767-.6898369-.5-.869l-1.989-1.131 1.989-1.131c.3103233-.1791631.501065-.5106721.5-.869v-1c0-.5522847.4477153-1 1-1h32c.5522847 0 1 .4477153 1 1z" id="L1_1353"/><path d="m24 48h-1c-.5522847 0-1 .4477153-1 1s.4477153 1 1 1h1c.5522847 0 1-.4477153 1-1s-.4477153-1-1-1z" id="L1_1354"/><path d="m41 48h-2c-.5522847 0-1 .4477153-1 1s.4477153 1 1 1h2c.5522847 0 1-.4477153 1-1s-.4477153-1-1-1z" id="L1_1355"/><path d="m51 48h-6c-.5522847 0-1 .4477153-1 1s.4477153 1 1 1h6c.5522847 0 1-.4477153 1-1s-.4477153-1-1-1z" id="L1_1356"/><path d="m35 48h-7c-.5522847 0-1 .4477153-1 1s.4477153 1 1 1h7c.5522847 0 1-.4477153 1-1s-.4477153-1-1-1z" id="Shape"/></g><g transform="matrix(0.039147093983335726 -0.03914709398333572 0.03914709398333572 0.039147093983335726 125.68339571424063 211.55129874584736)"><path d="m467 150.993h-30.931c-10.13-24.097-25.22-46.317-44.333-64.844-30.042-29.121-68.937-48.096-109.518-53.43-67.246-8.839-133.155 16.916-176.301 68.894-12.382 14.917-22.458 31.61-29.896 49.38h-31.021c-24.813 0-45 20.187-45 45v60c0 24.813 20.187 45 45 45h61.45l-6.426-19.66c-18.726-57.293-8.164-115.814 28.977-160.559 36.522-44 92.34-65.798 149.307-58.311 71.355 9.379 129.132 65.417 140.5 136.275 7.758 48.351-5.776 97.209-37.133 134.049-31.429 36.924-77.151 58.139-125.444 58.206-24.94.034-45.23 20.222-45.23 45 0 24.813 20.187 45 45 45s45-20.187 45-45v-20.265c39.959-9.49 76.286-31.5 103.52-63.497 13.228-15.54 23.761-32.712 31.485-51.239h30.994c24.813 0 45-20.187 45-45v-60c0-24.812-20.187-44.999-45-44.999zm-400.935 120h-21.065c-8.271 0-15-6.729-15-15v-60c0-8.271 6.729-15 15-15h21.244c-.534 2.248-1.028 4.508-1.48 6.774-5.475 27.432-5.03 55.346 1.301 83.226zm204.935 165c0 8.271-6.729 15-15 15s-15-6.729-15-15c0-8.26 6.851-14.989 15.271-15 4.934-.007 9.85-.201 14.729-.576zm211-180c0 8.271-6.729 15-15 15h-21.254c5.956-25.05 6.87-50.907 2.683-77.008-.699-4.358-1.567-8.691-2.58-12.992h21.151c8.271 0 15 6.729 15 15z"/><path d="m181 210.993h30v30h-30z"/><path d="m241 210.993h30v30h-30z"/><path d="m301 210.993h30v30h-30z"/><path d="m121 330.993v30h135c74.439 0 135-60.561 135-135s-60.561-135-135-135-135 60.561-135 135c0 30.339 10.189 59.673 28.829 83.389-3.616 12.643-15.162 21.611-28.829 21.611zm135-210c57.897 0 105 47.103 105 105s-47.103 105-105 105h-83.024c4.299-7.438 6.975-15.765 7.772-24.472l.589-6.422-4.257-4.845c-16.817-19.148-26.08-43.745-26.08-69.261 0-57.897 47.103-105 105-105z"/></g><g transform="matrix(0.039147093983335726 -0.03914709398333572 0.03914709398333572 0.039147093983335726 202.6833957142407 325.55129874584736)"><path d="m467 150.993h-30.931c-10.13-24.097-25.22-46.317-44.333-64.844-30.042-29.121-68.937-48.096-109.518-53.43-67.246-8.839-133.155 16.916-176.301 68.894-12.382 14.917-22.458 31.61-29.896 49.38h-31.021c-24.813 0-45 20.187-45 45v60c0 24.813 20.187 45 45 45h61.45l-6.426-19.66c-18.726-57.293-8.164-115.814 28.977-160.559 36.522-44 92.34-65.798 149.307-58.311 71.355 9.379 129.132 65.417 140.5 136.275 7.758 48.351-5.776 97.209-37.133 134.049-31.429 36.924-77.151 58.139-125.444 58.206-24.94.034-45.23 20.222-45.23 45 0 24.813 20.187 45 45 45s45-20.187 45-45v-20.265c39.959-9.49 76.286-31.5 103.52-63.497 13.228-15.54 23.761-32.712 31.485-51.239h30.994c24.813 0 45-20.187 45-45v-60c0-24.812-20.187-44.999-45-44.999zm-400.935 120h-21.065c-8.271 0-15-6.729-15-15v-60c0-8.271 6.729-15 15-15h21.244c-.534 2.248-1.028 4.508-1.48 6.774-5.475 27.432-5.03 55.346 1.301 83.226zm204.935 165c0 8.271-6.729 15-15 15s-15-6.729-15-15c0-8.26 6.851-14.989 15.271-15 4.934-.007 9.85-.201 14.729-.576zm211-180c0 8.271-6.729 15-15 15h-21.254c5.956-25.05 6.87-50.907 2.683-77.008-.699-4.358-1.567-8.691-2.58-12.992h21.151c8.271 0 15 6.729 15 15z"/><path d="m181 210.993h30v30h-30z"/><path d="m241 210.993h30v30h-30z"/><path d="m301 210.993h30v30h-30z"/><path d="m121 330.993v30h135c74.439 0 135-60.561 135-135s-60.561-135-135-135-135 60.561-135 135c0 30.339 10.189 59.673 28.829 83.389-3.616 12.643-15.162 21.611-28.829 21.611zm135-210c57.897 0 105 47.103 105 105s-47.103 105-105 105h-83.024c4.299-7.438 6.975-15.765 7.772-24.472l.589-6.422-4.257-4.845c-16.817-19.148-26.08-43.745-26.08-69.261 0-57.897 47.103-105 105-105z"/></g><g transform="matrix(0.04777278452101636 -0.03908682225173738 0.03908682225173738 0.04777278452101636 47.48952995265372 22.487815933508283)"><path d="m467 150.993h-30.931c-10.13-24.097-25.22-46.317-44.333-64.844-30.042-29.121-68.937-48.096-109.518-53.43-67.246-8.839-133.155 16.916-176.301 68.894-12.382 14.917-22.458 31.61-29.896 49.38h-31.021c-24.813 0-45 20.187-45 45v60c0 24.813 20.187 45 45 45h61.45l-6.426-19.66c-18.726-57.293-8.164-115.814 28.977-160.559 36.522-44 92.34-65.798 149.307-58.311 71.355 9.379 129.132 65.417 140.5 136.275 7.758 48.351-5.776 97.209-37.133 134.049-31.429 36.924-77.151 58.139-125.444 58.206-24.94.034-45.23 20.222-45.23 45 0 24.813 20.187 45 45 45s45-20.187 45-45v-20.265c39.959-9.49 76.286-31.5 103.52-63.497 13.228-15.54 23.761-32.712 31.485-51.239h30.994c24.813 0 45-20.187 45-45v-60c0-24.812-20.187-44.999-45-44.999zm-400.935 120h-21.065c-8.271 0-15-6.729-15-15v-60c0-8.271 6.729-15 15-15h21.244c-.534 2.248-1.028 4.508-1.48 6.774-5.475 27.432-5.03 55.346 1.301 83.226zm204.935 165c0 8.271-6.729 15-15 15s-15-6.729-15-15c0-8.26 6.851-14.989 15.271-15 4.934-.007 9.85-.201 14.729-.576zm211-180c0 8.271-6.729 15-15 15h-21.254c5.956-25.05 6.87-50.907 2.683-77.008-.699-4.358-1.567-8.691-2.58-12.992h21.151c8.271 0 15 6.729 15 15z"/><path d="m181 210.993h30v30h-30z"/><path d="m241 210.993h30v30h-30z"/><path d="m301 210.993h30v30h-30z"/><path d="m121 330.993v30h135c74.439 0 135-60.561 135-135s-60.561-135-135-135-135 60.561-135 135c0 30.339 10.189 59.673 28.829 83.389-3.616 12.643-15.162 21.611-28.829 21.611zm135-210c57.897 0 105 47.103 105 105s-47.103 105-105 105h-83.024c4.299-7.438 6.975-15.765 7.772-24.472l.589-6.422-4.257-4.845c-16.817-19.148-26.08-43.745-26.08-69.261 0-57.897 47.103-105 105-105z"/></g><g transform="matrix(0.0863440303367339 -0.011141165146765481 0.011141165146765481 0.0863440303367339 44.04378451620211 190.74808431823814)" id="L1_1358"><path d="M503.983,97.268c4.428,0,8.017-3.589,8.017-8.017V46.496c0-23.281-18.941-42.221-42.221-42.221H196.142    c-23.281,0-42.221,18.941-42.221,42.221v17.637H42.221C18.941,64.133,0,83.073,0,106.354v171.023    c0,23.281,18.941,42.221,42.221,42.221h17.637v77.495c0,6.64,8.021,10.432,13.148,6.159l100.384-83.654h142.467    c21.445,0,39.194-16.075,41.862-36.806l72.721,60.601c5.129,4.272,13.15,0.483,13.15-6.159v-77.495h26.188    c23.281,0,42.221-18.941,42.221-42.221v-94.063c0-4.427-3.588-8.017-8.017-8.017c-4.428,0-8.017,3.589-8.017,8.017v94.063    c0,14.44-11.747,26.188-26.188,26.188h-34.205c-4.428,0-8.017,3.589-8.017,8.017v68.395l-68.941-57.452    c-0.174-0.144-0.355-0.276-0.537-0.403v-45.279h43.29c4.428,0,8.017-3.589,8.017-8.017s-3.588-8.017-8.017-8.017h-43.29v-52.376    h9.086c4.428,0,8.017-3.589,8.017-8.017s-3.588-8.017-8.017-8.017h-9.086v-26.188c0-23.281-18.941-42.221-42.221-42.221H169.954    V46.495c0-14.44,11.748-26.188,26.188-26.188h273.637c14.441,0,26.188,11.748,26.188,26.188V89.25    C495.967,93.679,499.555,97.268,503.983,97.268z M315.858,80.166c14.441,0,26.188,11.747,26.188,26.188v171.023    c0,14.44-11.747,26.188-26.188,26.188h-145.37c-1.875,0-3.692,0.657-5.132,1.858l-89.465,74.554v-68.395    c0-4.427-3.589-8.017-8.017-8.017H42.221c-14.44,0-26.188-11.748-26.188-26.188V106.354c0-14.44,11.748-26.188,26.188-26.188    H315.858z"/><path d="M435.574,64.133h-76.96c-4.428,0-8.017,3.589-8.017,8.017s3.588,8.017,8.017,8.017h76.96c4.428,0,8.017-3.589,8.017-8.017    S440.003,64.133,435.574,64.133z"/><path d="M435.574,132.542h-42.756c-4.428,0-8.017,3.589-8.017,8.017c0,4.427,3.588,8.017,8.017,8.017h42.756    c4.428,0,8.017-3.589,8.017-8.017S440.003,132.542,435.574,132.542z"/><path d="M102.079,166.746c-13.851,0-25.119,11.268-25.119,25.119s11.268,25.119,25.119,25.119s25.119-11.268,25.119-25.119    C127.198,178.015,115.93,166.746,102.079,166.746z M102.079,200.951c-5.01,0-9.086-4.076-9.086-9.086    c0-5.01,4.076-9.086,9.086-9.086s9.086,4.076,9.086,9.086C111.165,196.875,107.089,200.951,102.079,200.951z"/><path d="M179.04,166.746c-13.851,0-25.119,11.268-25.119,25.119c0,13.851,11.268,25.119,25.119,25.119    s25.119-11.268,25.119-25.119C204.159,178.015,192.89,166.746,179.04,166.746z M179.04,200.951c-5.01,0-9.086-4.076-9.086-9.086    c0-5.01,4.076-9.086,9.086-9.086s9.086,4.076,9.086,9.086C188.125,196.875,184.05,200.951,179.04,200.951z"/><path d="M256,166.746c-13.851,0-25.119,11.268-25.119,25.119c0,13.851,11.268,25.119,25.119,25.119s25.119-11.268,25.119-25.119    C281.119,178.015,269.851,166.746,256,166.746z M256,200.951c-5.01,0-9.086-4.076-9.086-9.086c0-5.01,4.076-9.086,9.086-9.086    s9.086,4.076,9.086,9.086C265.086,196.875,261.01,200.951,256,200.951z"/><path d="M183.315,466.039h-39.015v-64.668c0-11.493-9.351-20.843-20.843-20.843s-20.843,9.351-20.843,20.843v85.511    c0,11.493,9.351,20.843,20.843,20.843h59.858c11.493,0,20.843-9.351,20.843-20.843    C204.159,475.389,194.808,466.039,183.315,466.039z M183.315,491.692h-59.858c-2.652,0-4.81-2.158-4.81-4.81v-85.511    c0-2.652,2.158-4.81,4.81-4.81s4.81,2.158,4.81,4.81v72.685c0,4.427,3.589,8.017,8.017,8.017h47.031c2.652,0,4.81,2.158,4.81,4.81    S185.967,491.692,183.315,491.692z"/><path d="M230.347,380.527c-11.493,0-20.843,9.351-20.843,20.843v85.511c0,11.493,9.351,20.843,20.843,20.843    s20.843-9.351,20.843-20.843v-85.511C251.19,389.878,241.839,380.527,230.347,380.527z M235.157,486.882    c0,2.652-2.158,4.81-4.81,4.81s-4.81-2.158-4.81-4.81v-85.511c0-2.652,2.158-4.81,4.81-4.81s4.81,2.158,4.81,4.81V486.882z"/><path d="M357.804,382.018c-10.667-4.266-22.825,0.942-27.094,11.611l-14.851,37.13l-14.852-37.13    c-4.268-10.667-16.425-15.873-27.094-11.611c-10.538,4.215-15.838,16.53-11.611,27.093l34.205,85.511    c3.184,7.96,10.78,13.102,19.352,13.102s16.169-5.143,19.352-13.102l34.203-85.511    C373.641,398.55,368.342,386.234,357.804,382.018z M354.529,403.157l-34.205,85.511c-1.579,3.946-7.352,3.947-8.931,0    l-34.206-85.511c-1.029-2.574,0.399-5.547,3.029-6.376c2.361-0.744,4.985,0.51,5.902,2.805l22.295,55.739    c2.632,6.575,12.255,6.575,14.888,0l22.294-55.737c0.872-2.179,3.277-3.43,5.561-2.896    C353.979,397.349,355.61,400.457,354.529,403.157z"/><path d="M448.401,466.039h-30.463v-1.069h13.361c11.493,0,20.843-9.351,20.843-20.843s-9.351-20.843-20.843-20.843h-13.361v-1.069    h30.463c11.493,0,20.843-9.351,20.843-20.843s-9.351-20.843-20.843-20.843h-51.307c-11.493,0-20.843,9.351-20.843,20.843v85.511    c0,11.493,9.351,20.843,20.843,20.843h51.307c11.493,0,20.843-9.351,20.843-20.843    C469.244,475.389,459.894,466.039,448.401,466.039z M448.401,491.692h-51.307c-2.652,0-4.81-2.158-4.81-4.81v-85.511    c0-2.652,2.158-4.81,4.81-4.81h51.307c2.652,0,4.81,2.158,4.81,4.81s-2.158,4.81-4.81,4.81h-38.48    c-4.428,0-8.017,3.589-8.017,8.017V431.3c0,4.428,3.588,8.017,8.017,8.017h21.378c2.652,0,4.81,2.158,4.81,4.81    s-2.158,4.81-4.81,4.81h-21.378c-4.428,0-8.017,3.589-8.017,8.017v17.102c0,4.427,3.588,8.017,8.017,8.017h38.48    c2.652,0,4.81,2.158,4.81,4.81S451.053,491.692,448.401,491.692z"/></g><g transform="matrix(0.09107991299872867 0.04838620507056833 -0.04838620507056833 0.09107991299872867 -0.10299293412541033 48.73456186991442)" id="L1_1359"><path d="m346.641 61.187h116.725c4.143 0 7.5-3.357 7.5-7.5s-3.357-7.5-7.5-7.5h-116.725c-4.143 0-7.5 3.357-7.5 7.5s3.357 7.5 7.5 7.5z"/><path d="m346.641 96.187h116.725c4.143 0 7.5-3.357 7.5-7.5s-3.357-7.5-7.5-7.5h-116.725c-4.143 0-7.5 3.357-7.5 7.5s3.357 7.5 7.5 7.5z"/><path d="m291.137 384.937-34.133-9.272-10.241-15.313c-6.165-9.221-18.853-11.872-28.281-5.239v-18.091c13.99-9.392 24.927-22.981 31.023-38.945h24.518c12.808 0 23.228-10.42 23.228-23.228v-30.616c0-5.69-2.06-10.906-5.469-14.949v-33.302c0-51.174-41.633-92.807-92.807-92.807h-52.115c-51.174 0-92.808 41.633-92.808 92.807v33.303c-3.408 4.043-5.468 9.258-5.468 14.948v30.616c0 12.808 10.419 23.228 23.227 23.228h24.519c6.096 15.964 17.033 29.552 31.022 38.944v18.091c-9.3-6.545-22.029-4.112-28.28 5.238l-10.242 15.314c-34.819 9.524-34.905 9.326-39.405 10.916-3.905 1.379-5.954 5.663-4.575 9.569 1.377 3.898 5.592 5.772 9.569 4.575 0 0 2.973-.888 37.17-10.267l36.541 32.003c8.686 7.607 21.816 7.643 30.544.094l14.244-12.319 14.243 12.319c8.714 7.537 21.847 7.523 30.544-.095l36.541-32.002 32.96 8.953c25.688 6.979 43.629 30.442 43.629 57.062v35.253c0 2.816-2.292 5.108-5.108 5.108h-27.059v-18.48c0-4.143-3.357-7.5-7.5-7.5s-7.5 3.357-7.5 7.5v18.48h-221.5v-18.48c0-4.143-3.357-7.5-7.5-7.5s-7.5 3.357-7.5 7.5v18.48h-27.06c-2.816 0-5.108-2.292-5.108-5.108v-35.253c0-13.808 4.87-27.254 13.713-37.864 2.652-3.182 2.223-7.911-.959-10.562-3.181-2.651-7.911-2.223-10.562.959-11.087 13.3-17.192 30.158-17.192 47.468v35.253c0 11.088 9.021 20.108 20.108 20.108h305.617c11.088 0 20.108-9.021 20.108-20.108v-35.253c.001-33.372-22.491-62.788-54.696-71.536zm-8.887-140.704v30.616c0 4.537-3.69 8.228-8.228 8.228h-20.39c.804-4.6 1.248-9.322 1.248-14.148v-32.923h19.143c4.537 0 8.227 3.69 8.227 8.227zm-210.439 38.844c-4.536 0-8.227-3.69-8.227-8.228v-30.616c0-4.537 3.69-8.228 8.227-8.228h19.144v32.923c0 4.826.443 9.549 1.248 14.148h-20.392zm9.734-87.743v25.672c-9.263.049-10.073-.118-12.493.169v-25.193c0-42.902 34.904-77.807 77.808-77.807h52.115c42.902 0 77.807 34.904 77.807 77.807v25.193c-2.416-.287-3.182-.12-12.492-.169v-25.672c0-36.46-29.663-66.122-66.123-66.122h-50.498c-36.461 0-66.124 29.662-66.124 66.122zm16.909 25.672c-.001 0-.001 0 0 0h-1.909v-25.672c0-28.188 22.934-51.122 51.123-51.122h50.498c28.189 0 51.123 22.934 51.123 51.122v25.672h-1.909c-4.347 0-7.883-3.536-7.883-7.883v-11.044c0-12.442-10.123-22.565-22.566-22.565-3.205 0-6.313.665-9.238 1.978-22.101 9.918-47.45 9.92-69.553-.001-2.925-1.312-6.033-1.977-9.237-1.977-12.442 0-22.565 10.123-22.565 22.565v11.044c-.001 4.347-3.537 7.883-7.884 7.883zm7.5 47.923v-34.186c8.945-3.111 15.383-11.628 15.383-21.62v-11.044c0-4.172 3.394-7.565 7.565-7.565 1.075 0 2.118.224 3.098.663 26.003 11.669 55.83 11.669 81.833 0 .98-.439 2.022-.663 3.098-.663 4.172 0 7.566 3.394 7.566 7.565v11.044c0 9.992 6.438 18.509 15.383 21.62v34.186c0 36.924-30.039 66.963-66.963 66.963s-66.963-30.039-66.963-66.963zm42.906 142.281c-3.101 2.682-7.764 2.666-10.849-.033l-34.613-30.314 8.143-12.174c1.655-2.474 5.056-3.018 7.398-1.179l42.186 33.092zm-6.508-44.399v-21.854c9.453 3.814 19.763 5.935 30.565 5.935s21.112-2.12 30.564-5.934v21.854l-30.564 23.976zm65.469 44.366c-3.084 2.701-7.747 2.714-10.849.032l-12.264-10.607 42.186-33.092c2.329-1.826 5.734-1.309 7.399 1.18l8.141 12.173z"/><path d="m482.743.166h-155.999c-16.132 0-29.257 13.125-29.257 29.258v6.731c0 4.143 3.357 7.5 7.5 7.5s7.5-3.357 7.5-7.5v-6.731c0-7.861 6.396-14.258 14.257-14.258h155.999c7.861 0 14.257 6.396 14.257 14.258v84.93c0 7.861-6.396 14.257-14.257 14.257h-92.814c-5.207 0-10.101 2.029-13.78 5.713l-34.512 34.564 5.679-26.478c1.524-7.111-3.899-13.8-11.154-13.8h-9.417c-7.861 0-14.257-6.396-14.257-14.257v-43.135c0-4.143-3.357-7.5-7.5-7.5s-7.5 3.357-7.5 7.5v43.136c0 16.132 13.125 29.257 29.257 29.257h4.973l-8.328 38.828c-.935 4.358 1.068 8.717 4.984 10.846 3.931 2.136 8.676 1.428 11.812-1.714l46.577-46.647c.846-.847 1.97-1.312 3.166-1.312h92.814c16.132 0 29.257-13.125 29.257-29.257v-84.93c0-16.134-13.125-29.259-29.257-29.259z"/></g><g transform="matrix(1.2773748165166752 -0.5018258314032414 0.5018258314032414 1.2773748165166752 45.13422142007061 290.690752342905)" id="L1_1360"><path d="M29.317,23.27c1.302-2.326,1.982-4.934,1.982-7.622C31.3,7.02,24.278,0,15.65,0C7.021,0,0.001,7.02,0.001,15.648    c0,8.629,7.021,15.653,15.65,15.653c2.672,0,5.264-0.676,7.581-1.966c1.607,0.642,3.263,1.302,3.263,1.302    c0.354,0.141,0.724,0.209,1.092,0.209c0.722,0,1.433-0.265,1.985-0.767c0.836-0.761,1.166-1.927,0.851-3.013L29.317,23.27z     M27.585,27.893c0,0-2.797-1.112-4.646-1.856c-2.062,1.448-4.572,2.312-7.289,2.312c-7.012,0-12.696-5.685-12.696-12.699    c0-7.011,5.684-12.695,12.696-12.695s12.697,5.683,12.697,12.694c0,2.668-0.826,5.142-2.23,7.186L27.585,27.893z"/><path d="M9.52,12.431h12.231c0.543,0,0.984-0.44,0.984-0.984c0-0.545-0.441-0.984-0.984-0.984H9.52    c-0.544,0-0.984,0.439-0.984,0.984C8.535,11.991,8.976,12.431,9.52,12.431z"/><path d="M21.78,14.665H9.55c-0.543,0-0.984,0.44-0.984,0.984c0,0.544,0.441,0.984,0.984,0.984h12.23    c0.545,0,0.984-0.439,0.984-0.984C22.765,15.105,22.325,14.665,21.78,14.665z"/><path d="M21.78,18.869H9.55c-0.543,0-0.984,0.439-0.984,0.984s0.441,0.983,0.984,0.983h12.23c0.545,0,0.984-0.438,0.984-0.983    C22.767,19.309,22.325,18.869,21.78,18.869z"/></g></defs><g fi:class="KUsePattern" opacity="0.09"><pattern id="pattern_L1_1332" width="350" height="350" patternUnits="userSpaceOnUse"><use xlink:href="#L1_1332" x="-350" y="-350"/><use xlink:href="#L1_1332" x="0" y="-350"/><use xlink:href="#L1_1332" x="350" y="-350"/><use xlink:href="#L1_1332" x="-350" y="0"/><use xlink:href="#L1_1332" x="0" y="0"/><use xlink:href="#L1_1332" x="350" y="0"/><use xlink:href="#L1_1332" x="-350" y="350"/><use xlink:href="#L1_1332" x="0" y="350"/><use xlink:href="#L1_1332" x="350" y="350"/></pattern><rect x="0" y="0" width="100%" height="100%" fill="url(#pattern_L1_1332)"/></g><g fi:class="KUsePattern" opacity="0.08"><pattern id="pattern_L1_1333" width="350" height="350" patternUnits="userSpaceOnUse"><use xlink:href="#L1_1333" x="-350" y="-350"/><use xlink:href="#L1_1333" x="0" y="-350"/><use xlink:href="#L1_1333" x="350" y="-350"/><use xlink:href="#L1_1333" x="-350" y="0"/><use xlink:href="#L1_1333" x="0" y="0"/><use xlink:href="#L1_1333" x="350" y="0"/><use xlink:href="#L1_1333" x="-350" y="350"/><use xlink:href="#L1_1333" x="0" y="350"/><use xlink:href="#L1_1333" x="350" y="350"/></pattern><rect x="0" y="0" width="100%" height="100%" fill="url(#pattern_L1_1333)"/></g><g fi:class="KUsePattern" opacity="0.09"><pattern id="pattern_L1_1336" width="350" height="350" patternUnits="userSpaceOnUse"><use xlink:href="#L1_1336" x="-350" y="-350"/><use xlink:href="#L1_1336" x="0" y="-350"/><use xlink:href="#L1_1336" x="350" y="-350"/><use xlink:href="#L1_1336" x="-350" y="0"/><use xlink:href="#L1_1336" x="0" y="0"/><use xlink:href="#L1_1336" x="350" y="0"/><use xlink:href="#L1_1336" x="-350" y="350"/><use xlink:href="#L1_1336" x="0" y="350"/><use xlink:href="#L1_1336" x="350" y="350"/></pattern><rect x="0" y="0" width="100%" height="100%" fill="url(#pattern_L1_1336)"/></g><g fi:class="KUsePattern" opacity="0.09"><pattern id="pattern_L1_1334" width="350" height="350" patternUnits="userSpaceOnUse"><use xlink:href="#L1_1334" x="-350" y="-350"/><use xlink:href="#L1_1334" x="0" y="-350"/><use xlink:href="#L1_1334" x="350" y="-350"/><use xlink:href="#L1_1334" x="-350" y="0"/><use xlink:href="#L1_1334" x="0" y="0"/><use xlink:href="#L1_1334" x="350" y="0"/><use xlink:href="#L1_1334" x="-350" y="350"/><use xlink:href="#L1_1334" x="0" y="350"/><use xlink:href="#L1_1334" x="350" y="350"/></pattern><rect x="0" y="0" width="100%" height="100%" fill="url(#pattern_L1_1334)"/></g><g fi:class="KUsePattern" opacity="0.08"><pattern id="pattern_L1_1335" width="350" height="350" patternUnits="userSpaceOnUse"><use xlink:href="#L1_1335" x="-350" y="-350"/><use xlink:href="#L1_1335" x="0" y="-350"/><use xlink:href="#L1_1335" x="350" y="-350"/><use xlink:href="#L1_1335" x="-350" y="0"/><use xlink:href="#L1_1335" x="0" y="0"/><use xlink:href="#L1_1335" x="350" y="0"/><use xlink:href="#L1_1335" x="-350" y="350"/><use xlink:href="#L1_1335" x="0" y="350"/><use xlink:href="#L1_1335" x="350" y="350"/></pattern><rect x="0" y="0" width="100%" height="100%" fill="url(#pattern_L1_1335)"/></g><g fi:class="KUsePattern" opacity="0.09"><pattern id="pattern_L1_1337" width="350" height="350" patternUnits="userSpaceOnUse"><use xlink:href="#L1_1337" x="-350" y="-350"/><use xlink:href="#L1_1337" x="0" y="-350"/><use xlink:href="#L1_1337" x="350" y="-350"/><use xlink:href="#L1_1337" x="-350" y="0"/><use xlink:href="#L1_1337" x="0" y="0"/><use xlink:href="#L1_1337" x="350" y="0"/><use xlink:href="#L1_1337" x="-350" y="350"/><use xlink:href="#L1_1337" x="0" y="350"/><use xlink:href="#L1_1337" x="350" y="350"/></pattern><rect x="0" y="0" width="100%" height="100%" fill="url(#pattern_L1_1337)"/></g><g fi:class="KUsePattern" opacity="0.08"><pattern id="pattern_L1_1339" width="350" height="350" patternUnits="userSpaceOnUse"><use xlink:href="#L1_1339" x="-350" y="-350"/><use xlink:href="#L1_1339" x="0" y="-350"/><use xlink:href="#L1_1339" x="350" y="-350"/><use xlink:href="#L1_1339" x="-350" y="0"/><use xlink:href="#L1_1339" x="0" y="0"/><use xlink:href="#L1_1339" x="350" y="0"/><use xlink:href="#L1_1339" x="-350" y="350"/><use xlink:href="#L1_1339" x="0" y="350"/><use xlink:href="#L1_1339" x="350" y="350"/></pattern><rect x="0" y="0" width="100%" height="100%" fill="url(#pattern_L1_1339)"/></g><g fi:class="KUsePattern" opacity="0.09"><pattern id="pattern_L1_1357" width="350" height="350" patternUnits="userSpaceOnUse"><use xlink:href="#L1_1357" x="-350" y="-350"/><use xlink:href="#L1_1357" x="0" y="-350"/><use xlink:href="#L1_1357" x="350" y="-350"/><use xlink:href="#L1_1357" x="-350" y="0"/><use xlink:href="#L1_1357" x="0" y="0"/><use xlink:href="#L1_1357" x="350" y="0"/><use xlink:href="#L1_1357" x="-350" y="350"/><use xlink:href="#L1_1357" x="0" y="350"/><use xlink:href="#L1_1357" x="350" y="350"/></pattern><rect x="0" y="0" width="100%" height="100%" fill="url(#pattern_L1_1357)"/></g><g fi:class="KUsePattern" transform="matrix(1 0 0 1 20 20)" opacity="0.08"><pattern id="pattern_UNKNOWN" width="350" height="350" patternUnits="userSpaceOnUse"><use xlink:href="#UNKNOWN" x="-350" y="-350"/><use xlink:href="#UNKNOWN" x="0" y="-350"/><use xlink:href="#UNKNOWN" x="350" y="-350"/><use xlink:href="#UNKNOWN" x="-350" y="0"/><use xlink:href="#UNKNOWN" x="0" y="0"/><use xlink:href="#UNKNOWN" x="350" y="0"/><use xlink:href="#UNKNOWN" x="-350" y="350"/><use xlink:href="#UNKNOWN" x="0" y="350"/><use xlink:href="#UNKNOWN" x="350" y="350"/></pattern><rect x="0" y="0" width="100%" height="100%" fill="url(#pattern_UNKNOWN)"/></g><g fi:class="KUsePattern" transform="matrix(1 0 0 1 20 20)" opacity="0.1"><pattern id="pattern_UNKNOWN" width="350" height="350" patternUnits="userSpaceOnUse"><use xlink:href="#UNKNOWN" x="-350" y="-350"/><use xlink:href="#UNKNOWN" x="0" y="-350"/><use xlink:href="#UNKNOWN" x="350" y="-350"/><use xlink:href="#UNKNOWN" x="-350" y="0"/><use xlink:href="#UNKNOWN" x="0" y="0"/><use xlink:href="#UNKNOWN" x="350" y="0"/><use xlink:href="#UNKNOWN" x="-350" y="350"/><use xlink:href="#UNKNOWN" x="0" y="350"/><use xlink:href="#UNKNOWN" x="350" y="350"/></pattern><rect x="0" y="0" width="100%" height="100%" fill="url(#pattern_UNKNOWN)"/></g><g fi:class="KUsePattern" transform="matrix(1 0 0 1 20 20)" opacity="0.1"><pattern id="pattern_UNKNOWN" width="350" height="350" patternUnits="userSpaceOnUse"><use xlink:href="#UNKNOWN" x="-350" y="-350"/><use xlink:href="#UNKNOWN" x="0" y="-350"/><use xlink:href="#UNKNOWN" x="350" y="-350"/><use xlink:href="#UNKNOWN" x="-350" y="0"/><use xlink:href="#UNKNOWN" x="0" y="0"/><use xlink:href="#UNKNOWN" x="350" y="0"/><use xlink:href="#UNKNOWN" x="-350" y="350"/><use xlink:href="#UNKNOWN" x="0" y="350"/><use xlink:href="#UNKNOWN" x="350" y="350"/></pattern><rect x="0" y="0" width="100%" height="100%" fill="url(#pattern_UNKNOWN)"/></g><g fi:class="KUsePattern" opacity="0.09"><pattern id="pattern_L1_1358" width="350" height="350" patternUnits="userSpaceOnUse"><use xlink:href="#L1_1358" x="-350" y="-350"/><use xlink:href="#L1_1358" x="0" y="-350"/><use xlink:href="#L1_1358" x="350" y="-350"/><use xlink:href="#L1_1358" x="-350" y="0"/><use xlink:href="#L1_1358" x="0" y="0"/><use xlink:href="#L1_1358" x="350" y="0"/><use xlink:href="#L1_1358" x="-350" y="350"/><use xlink:href="#L1_1358" x="0" y="350"/><use xlink:href="#L1_1358" x="350" y="350"/></pattern><rect x="0" y="0" width="100%" height="100%" fill="url(#pattern_L1_1358)"/></g><g fi:class="KUsePattern" opacity="0.11"><pattern id="pattern_L1_1359" width="350" height="350" patternUnits="userSpaceOnUse"><use xlink:href="#L1_1359" x="-350" y="-350"/><use xlink:href="#L1_1359" x="0" y="-350"/><use xlink:href="#L1_1359" x="350" y="-350"/><use xlink:href="#L1_1359" x="-350" y="0"/><use xlink:href="#L1_1359" x="0" y="0"/><use xlink:href="#L1_1359" x="350" y="0"/><use xlink:href="#L1_1359" x="-350" y="350"/><use xlink:href="#L1_1359" x="0" y="350"/><use xlink:href="#L1_1359" x="350" y="350"/></pattern><rect x="0" y="0" width="100%" height="100%" fill="url(#pattern_L1_1359)"/></g><g fi:class="KUsePattern" opacity="0.07"><pattern id="pattern_L1_1360" width="350" height="350" patternUnits="userSpaceOnUse"><use xlink:href="#L1_1360" x="-350" y="-350"/><use xlink:href="#L1_1360" x="0" y="-350"/><use xlink:href="#L1_1360" x="350" y="-350"/><use xlink:href="#L1_1360" x="-350" y="0"/><use xlink:href="#L1_1360" x="0" y="0"/><use xlink:href="#L1_1360" x="350" y="0"/><use xlink:href="#L1_1360" x="-350" y="350"/><use xlink:href="#L1_1360" x="0" y="350"/><use xlink:href="#L1_1360" x="350" y="350"/></pattern><rect x="0" y="0" width="100%" height="100%" fill="url(#pattern_L1_1360)"/></g></svg>