<svg id="Capa_1" enable-background="new 0 0 511.035 511.035" height="512" viewBox="0 0 511.035 511.035" width="512" xmlns="http://www.w3.org/2000/svg"><g><g><g><g><path d="m417.932 511.035h-357.219c-8.284 0-15-6.716-15-15v-481.035c0-8.284 6.716-15 15-15h357.219c8.284 0 15 6.716 15 15v75.305c0 8.284-6.716 15-15 15s-15-6.716-15-15v-60.305h-327.219v451.035h327.219v-308.103c0-8.284 6.716-15 15-15s15 6.716 15 15v323.103c0 8.284-6.716 15-15 15z"/></g><g><g><path d="m337.932 420.518h-197.219c-8.284 0-15-6.716-15-15s6.716-15 15-15h197.219c8.284 0 15 6.716 15 15s-6.716 15-15 15z"/></g><g><path d="m337.932 360.518h-91.58c-8.284 0-15-6.716-15-15s6.716-15 15-15h91.58c8.284 0 15 6.716 15 15s-6.716 15-15 15z"/></g><g><path d="m185.27 360.518h-44.557c-8.284 0-15-6.716-15-15s6.716-15 15-15h44.557c8.284 0 15 6.716 15 15s-6.716 15-15 15z"/></g><g><path d="m337.932 300.518h-32.586c-8.284 0-15-6.716-15-15s6.716-15 15-15h32.586c8.284 0 15 6.716 15 15s-6.716 15-15 15z"/></g><g><path d="m218.932 300.518h-78.219c-8.284 0-15-6.716-15-15s6.716-15 15-15h78.219c8.284 0 15 6.716 15 15s-6.716 15-15 15z"/></g><g><path d="m275.518 240.518h-134.805c-8.284 0-15-6.716-15-15s6.716-15 15-15h134.805c8.284 0 15 6.716 15 15s-6.716 15-15 15z"/></g><g><path d="m337.932 180.518h-197.219c-8.284 0-15-6.716-15-15s6.716-15 15-15h197.219c8.284 0 15 6.716 15 15s-6.716 15-15 15z"/></g><g><path d="m337.932 120.518h-197.219c-8.284 0-15-6.716-15-15s6.716-15 15-15h197.219c8.284 0 15 6.716 15 15s-6.716 15-15 15z"/></g></g></g><g><g><path d="m249.352 356.512c-3.839 0-7.678-1.465-10.607-4.393l-42.427-42.426c-2.813-2.813-4.394-6.628-4.394-10.606 0-3.979 1.581-7.794 4.394-10.607l203.77-203.77c15.435-15.434 40.549-15.434 55.982 0l7.658 7.658c7.476 7.476 11.594 17.417 11.594 27.99s-4.117 20.515-11.594 27.991l-203.77 203.77c-2.929 2.928-6.767 4.393-10.606 4.393zm-21.214-57.426 21.213 21.213 193.164-193.163c1.81-1.811 2.807-4.218 2.807-6.778s-.997-4.967-2.807-6.777l-7.658-7.658c-3.736-3.736-9.818-3.737-13.556.001z"/></g><g><path d="m169.848 393.593c-3.896 0-7.734-1.518-10.61-4.394-4.459-4.459-5.653-11.231-2.988-16.946l37.081-79.507c2.068-4.435 6.17-7.583 10.99-8.433 4.821-.849 9.751.705 13.211 4.166l42.427 42.426c3.46 3.46 5.016 8.392 4.166 13.211s-3.997 8.921-8.432 10.989l-79.508 37.081c-2.03.947-4.193 1.407-6.337 1.407zm41.617-68.754-10.604 22.737 22.737-10.604z"/></g></g></g><g><g><path d="m72.842 451.018h-22.129c-8.284 0-15-6.716-15-15s6.716-15 15-15h22.129c8.284 0 15 6.716 15 15s-6.715 15-15 15z"/></g><g><path d="m72.842 391.018h-22.129c-8.284 0-15-6.716-15-15s6.716-15 15-15h22.129c8.284 0 15 6.716 15 15s-6.715 15-15 15z"/></g><g><path d="m72.842 331.018h-22.129c-8.284 0-15-6.716-15-15s6.716-15 15-15h22.129c8.284 0 15 6.716 15 15s-6.715 15-15 15z"/></g><g><path d="m72.842 270.018h-22.129c-8.284 0-15-6.716-15-15s6.716-15 15-15h22.129c8.284 0 15 6.716 15 15s-6.715 15-15 15z"/></g><g><path d="m72.842 210.018h-22.129c-8.284 0-15-6.716-15-15s6.716-15 15-15h22.129c8.284 0 15 6.716 15 15s-6.715 15-15 15z"/></g><g><path d="m72.842 150.018h-22.129c-8.284 0-15-6.716-15-15s6.716-15 15-15h22.129c8.284 0 15 6.716 15 15s-6.715 15-15 15z"/></g><g><path d="m72.842 90.018h-22.129c-8.284 0-15-6.716-15-15s6.716-15 15-15h22.129c8.284 0 15 6.716 15 15s-6.715 15-15 15z"/></g></g></g></svg>